<svg width="41" height="42" viewBox="0 0 41 42" fill="none" xmlns="http://www.w3.org/2000/svg">
<path d="M20.5001 14C18.6878 14 16.9497 14.7375 15.6682 16.0503C14.3867 17.363 13.6667 19.1435 13.6667 21C13.6667 22.8565 14.3867 24.637 15.6682 25.9497C16.9497 27.2625 18.6878 28 20.5001 28C22.3124 28 24.0505 27.2625 25.332 25.9497C26.6135 24.637 27.3334 22.8565 27.3334 21C27.3334 19.1435 26.6135 17.363 25.332 16.0503C24.0505 14.7375 22.3124 14 20.5001 14Z" fill="#D7D7D7"/>
<path fill-rule="evenodd" clip-rule="evenodd" d="M12.3 0C9.03784 0 5.90928 1.3275 3.60259 3.69045C1.29589 6.05341 0 9.25827 0 12.6L0 29.4C0 32.7417 1.29589 35.9466 3.60259 38.3095C5.90928 40.6725 9.03784 42 12.3 42H28.7C31.9622 42 35.0907 40.6725 37.3974 38.3095C39.7041 35.9466 41 32.7417 41 29.4V12.6C41 9.25827 39.7041 6.05341 37.3974 3.69045C35.0907 1.3275 31.9622 0 28.7 0L12.3 0ZM10.9333 21C10.9333 18.4009 11.9412 15.9082 13.7353 14.0704C15.5294 12.2325 17.9628 11.2 20.5 11.2C23.0372 11.2 25.4706 12.2325 27.2647 14.0704C29.0588 15.9082 30.0667 18.4009 30.0667 21C30.0667 23.5991 29.0588 26.0918 27.2647 27.9296C25.4706 29.7675 23.0372 30.8 20.5 30.8C17.9628 30.8 15.5294 29.7675 13.7353 27.9296C11.9412 26.0918 10.9333 23.5991 10.9333 21ZM30.0667 11.2H32.8V8.4H30.0667V11.2Z" fill="#D7D7D7"/>
</svg>
