<svg width="43" height="35" viewBox="0 0 43 35" fill="none" xmlns="http://www.w3.org/2000/svg">
<path d="M43 9.45681V28.2765C43 30.0274 42.3045 31.7065 41.0664 32.9445C39.8284 34.1826 38.1493 34.8781 36.3984 34.8781H7.35156C5.60072 34.8781 3.92159 34.1826 2.68355 32.9445C1.44552 31.7065 0.75 30.0274 0.75 28.2765V9.45681L21.2043 21.4928C21.4075 21.6126 21.6391 21.6758 21.875 21.6758C22.1109 21.6758 22.3425 21.6126 22.5457 21.4928L43 9.45681ZM36.3984 0.549988C38.0228 0.549732 39.5903 1.14837 40.8009 2.23138C42.0116 3.31439 42.7804 4.80573 42.9604 6.4201L21.875 18.8231L0.78961 6.4201C0.96959 4.80573 1.73845 3.31439 2.9491 2.23138C4.15975 1.14837 5.72719 0.549732 7.35156 0.549988H36.3984Z" fill="#D7D7D7"/>
</svg>
