<svg width="44" height="44" viewBox="0 0 44 44" fill="none" xmlns="http://www.w3.org/2000/svg">
<path d="M21.7659 0C9.76427 0 0 9.76609 0 21.7677C0 33.7803 9.76427 43.55 21.7659 43.55C33.7785 43.55 43.55 33.7785 43.55 21.7677C43.55 9.76609 33.7785 0 21.7659 0ZM10.7206 29.7664C13.2127 29.003 15.8043 28.6129 18.4108 28.6087C22.7912 28.6087 27.1153 29.7192 30.9169 31.8205C31.1437 31.9439 31.3487 32.3504 31.4431 32.8585C31.5338 33.3666 31.4975 33.8873 31.3487 34.1577C31.2786 34.2863 31.1837 34.3997 31.0694 34.4914C30.9551 34.583 30.8238 34.6511 30.683 34.6916C30.5423 34.7321 30.3948 34.7442 30.2493 34.7274C30.1038 34.7105 29.9631 34.6649 29.8354 34.5932C27.0431 33.0614 23.9716 32.106 20.8031 31.7837C17.6346 31.4614 14.4337 31.7788 11.3901 32.7169C11.2504 32.7621 11.1031 32.779 10.9568 32.7667C10.8105 32.7544 10.668 32.7131 10.5378 32.6452C10.4076 32.5773 10.2922 32.4842 10.1984 32.3713C10.1045 32.2584 10.034 32.1279 9.9911 31.9875C9.79694 31.3524 10.198 29.937 10.7206 29.7664ZM9.77153 21.746C12.5869 20.9811 15.4915 20.5936 18.4089 20.5937C23.6604 20.5937 28.8736 21.8639 33.4881 24.2701C33.8129 24.4334 34.0507 24.7128 34.1595 25.054C34.2146 25.2262 34.2346 25.4078 34.2184 25.5879C34.2022 25.768 34.1501 25.9431 34.0652 26.1028C33.6533 26.9085 33.1706 27.451 32.8675 27.451C32.6465 27.45 32.4288 27.3966 32.2324 27.295C27.9667 25.0679 23.2228 23.9132 18.4108 23.9307C15.7341 23.9254 13.0691 24.2824 10.4883 24.9923C10.3161 25.0393 10.1364 25.052 9.9593 25.0296C9.78223 25.0072 9.6113 24.9501 9.45628 24.8617C9.30126 24.7732 9.16518 24.6551 9.05581 24.514C8.94645 24.373 8.86594 24.2118 8.81888 24.0396C8.61564 23.2738 9.08199 21.9347 9.77153 21.746ZM9.52656 16.5091C9.32232 16.5615 9.10972 16.5729 8.90103 16.5428C8.69233 16.5126 8.49169 16.4414 8.31067 16.3332C8.12965 16.2251 7.97183 16.0822 7.84634 15.9127C7.72085 15.7433 7.63016 15.5506 7.57951 15.3459C7.35632 14.4423 7.92066 13.3934 8.74085 13.1866C11.9046 12.4073 15.1507 12.0119 18.4089 12.0089C24.6693 12.0089 30.6683 13.417 36.2354 16.1952C36.6179 16.3854 36.9092 16.7197 37.0453 17.1246C37.1815 17.5295 37.1512 17.9719 36.9612 18.3545C36.7018 18.8771 36.1392 19.4396 35.5187 19.4396C35.2753 19.4387 35.035 19.3849 34.8146 19.2818C29.7239 16.728 24.1043 15.4065 18.4089 15.424C15.4421 15.424 12.4535 15.7887 9.52656 16.5091Z" fill="#D7D7D7"/>
</svg>
